# xmcd
#
# Track frame offsets: 
#        150
#        19114
#        33597
#        53429
#        70085
#        92872
#        111536
#        130542
#        154928
#        173747
#        196387
#
# Disc length: 2830 seconds
#
# Revision: 2
# Processed by: cddbd v1.5.2PL0 Copyright (c) Steve Scherf et al.
# Submitted via: ExactAudioCopy v1.0b2
#
DISCID=8e0b0c0b
DTITLE=赵鹏 - 月光森林
DYEAR=2004
DGENRE=Vocal
TTITLE0=月光森林
TTITLE1=青春舞曲
TTITLE2=老情人1959
TTITLE3=乡间小路
TTITLE4=夜色如水
TTITLE5=红梅花儿开
TTITLE6=夜来香
TTITLE7=不了情
TTITLE8=小路
TTITLE9=再回首
TTITLE10=其实你不懂我的心
EXTD=
EXTT0=
EXTT1=
EXTT2=
EXTT3=
EXTT4=
EXTT5=
EXTT6=
EXTT7=
EXTT8=
EXTT9=
EXTT10=
PLAYORDER=
